<!-- Generator: Adobe Illustrator 22.0.1, SVG Export Plug-In  -->
<svg version="1.1"
	 xmlns="http://www.w3.org/2000/svg" xmlns:xlink="http://www.w3.org/1999/xlink" xmlns:a="http://ns.adobe.com/AdobeSVGViewerExtensions/3.0/"
	 x="0px" y="0px" width="21.2px" height="21.2px" viewBox="0 0 21.2 21.2" style="enable-background:new 0 0 21.2 21.2;"
	 xml:space="preserve">
<style type="text/css">
	.st0{fill:#808083;}
</style>
<defs>
</defs>
<g>
	<path class="st0" d="M21.2,17.9c0,1.8-1.5,3.3-3.3,3.3H3.3c-1.8,0-3.3-1.5-3.3-3.3V9.4h4.3c-0.1,0.8-0.2,1.6,0,2.4
		c0.6,3,3.4,5.3,6.5,5.3c3.5-0.1,6.3-2.9,6.3-6.4c0-0.4,0-0.8-0.1-1.2h4.3V17.9z M6.7,11.2c-0.4-2.7,1.9-4.9,4.5-4.5
		c1.7,0.3,3,1.6,3.3,3.3c0.4,2.7-1.9,4.9-4.5,4.5C8.3,14.3,7,12.9,6.7,11.2z M21.2,6.9h-5.4c-1.2-1.6-3.1-2.7-5.2-2.7
		c-2.2,0-4.1,1.1-5.2,2.7H0V3.3C0,1.5,1.5,0,3.3,0h14.6c1.8,0,3.3,1.5,3.3,3.3V6.9z"/>
	<path class="st0" d="M18.9,1.7h-1.8c-0.3,0-0.6,0.3-0.6,0.6v1.8c0,0.3,0.3,0.6,0.6,0.6h1.8c0.3,0,0.6-0.3,0.6-0.6V2.3
		C19.5,2,19.3,1.7,18.9,1.7z"/>
</g>
</svg>