<!-- Generator: Adobe Illustrator 22.0.1, SVG Export Plug-In  -->
<svg version="1.1"
	 xmlns="http://www.w3.org/2000/svg" xmlns:xlink="http://www.w3.org/1999/xlink" xmlns:a="http://ns.adobe.com/AdobeSVGViewerExtensions/3.0/"
	 x="0px" y="0px" width="66px" height="47.6px" viewBox="0 0 66 47.6" style="enable-background:new 0 0 66 47.6;"
	 xml:space="preserve">
<style type="text/css">
	.st0{opacity:5.000000e-02;}
</style>
<defs>
</defs>
<g class="st0">
	<path d="M26,47.6C11.8,47.4,0,45.8,0,33c0-4,1.6-8.4,3.8-12.8L13.4,0L26,3.8l-4.6,19.8c-0.2,1.2,0,1.8,1,2.2l7.6,2.6L26,47.6z
		 M62,47.6C47.8,47.4,36,45.8,36,33c0-4,1.6-8.4,3.8-12.8L49.4,0L62,3.8l-4.6,19.8c-0.2,1.2,0,1.8,1,2.2l7.6,2.6L62,47.6z"/>
</g>
</svg>