<!-- Generator: Adobe Illustrator 22.0.1, SVG Export Plug-In  -->
<svg version="1.1"
	 xmlns="http://www.w3.org/2000/svg" xmlns:xlink="http://www.w3.org/1999/xlink" xmlns:a="http://ns.adobe.com/AdobeSVGViewerExtensions/3.0/"
	 x="0px" y="0px" width="25.1px" height="25.1px" viewBox="0 0 25.1 25.1" style="enable-background:new 0 0 25.1 25.1;"
	 xml:space="preserve">
<style type="text/css">
	.st0{fill-rule:evenodd;clip-rule:evenodd;fill:#ffffff;}
</style>
<defs>
</defs>
<path class="st0" d="M12.6,25.1C5.6,25.1,0,19.5,0,12.6C0,5.6,5.6,0,12.6,0c6.9,0,12.6,5.6,12.6,12.6C25.1,19.5,19.5,25.1,12.6,25.1
	L12.6,25.1z M23.2,14.3c-0.4-0.1-3.3-1-6.7-0.5c1.4,3.9,2,7,2.1,7.6C21,19.8,22.7,17.3,23.2,14.3L23.2,14.3z M16.8,22.4
	c-0.2-0.9-0.8-4.2-2.3-8.1c0,0,0,0-0.1,0C8.3,16.4,6.2,20.6,6,21c1.8,1.4,4.1,2.3,6.6,2.3C14.1,23.3,15.5,23,16.8,22.4L16.8,22.4z
	 M4.6,19.7c0.2-0.4,3.2-5.3,8.7-7.1c0.1,0,0.3-0.1,0.4-0.1c-0.3-0.6-0.6-1.2-0.9-1.8c-5.4,1.6-10.6,1.5-11,1.5c0,0.1,0,0.2,0,0.3
	C1.8,15.3,2.9,17.8,4.6,19.7L4.6,19.7z M2.1,10.4c0.5,0,4.9,0,9.9-1.3c-1.8-3.2-3.7-5.8-4-6.2C5,4.3,2.8,7,2.1,10.4L2.1,10.4z
	 M10.1,2.1c0.3,0.4,2.2,3,4,6.3c3.8-1.4,5.4-3.6,5.6-3.9c-1.9-1.7-4.4-2.7-7.1-2.7C11.7,1.8,10.9,2,10.1,2.1L10.1,2.1z M20.9,5.8
	c-0.2,0.3-2,2.6-6,4.2c0.2,0.5,0.5,1,0.7,1.6c0.1,0.2,0.2,0.4,0.2,0.6c3.6-0.4,7.1,0.3,7.5,0.3C23.3,9.9,22.4,7.6,20.9,5.8L20.9,5.8
	z"/>
</svg>