<!-- Generator: Adobe Illustrator 22.0.1, SVG Export Plug-In  -->
<svg version="1.1"
	 xmlns="http://www.w3.org/2000/svg" xmlns:xlink="http://www.w3.org/1999/xlink" xmlns:a="http://ns.adobe.com/AdobeSVGViewerExtensions/3.0/"
	 x="0px" y="0px" width="30.9px" height="19.9px" viewBox="0 0 30.9 19.9" style="enable-background:new 0 0 30.9 19.9;"
	 xml:space="preserve">
<style type="text/css">
	.st0{fill:#FFFFFF;}
</style>
<defs>
</defs>
<g>
	<path class="st0" d="M1,1.9c0.8,0.5,12.4,6.7,12.9,6.9c0.4,0.2,1,0.3,1.6,0.3S16.6,9,17,8.8c0.4-0.2,12-6.5,12.9-6.9
		C30.7,1.4,31.5,0,29.9,0h-29C-0.6,0,0.2,1.4,1,1.9z M30.2,5.3c-1,0.5-12.6,6.6-13.2,6.9c-0.6,0.3-1,0.3-1.6,0.3s-1,0-1.6-0.3
		C13.3,11.9,1.6,5.8,0.7,5.3C0,4.9,0,5.4,0,5.7s0,12.6,0,12.6c0,0.7,1,1.6,1.7,1.6h27.5c0.7,0,1.7-0.9,1.7-1.6c0,0,0-12.3,0-12.6
		S30.9,4.9,30.2,5.3z"/>
</g>
</svg>