<!-- Generator: Adobe Illustrator 22.0.1, SVG Export Plug-In  -->
<svg version="1.1"
	 xmlns="http://www.w3.org/2000/svg" xmlns:xlink="http://www.w3.org/1999/xlink" xmlns:a="http://ns.adobe.com/AdobeSVGViewerExtensions/3.0/"
	 x="0px" y="0px" width="25.8px" height="25.4px" viewBox="0 0 25.8 25.4" style="enable-background:new 0 0 25.8 25.4;"
	 xml:space="preserve">
<style type="text/css">
	.st0{fill:#FFFFFF;}
</style>
<defs>
</defs>
<g>
	<g>
		<path class="st0" d="M5.8,2.8c0,1.5-1.1,2.8-3,2.8C1.1,5.5,0,4.3,0,2.8C0,1.2,1.2,0,2.9,0C4.7,0,5.8,1.2,5.8,2.8z M0.1,25.4V7.7
			h5.5v17.7H0.1z"/>
		<path class="st0" d="M8.9,13.3c0-2.2-0.1-4.1-0.1-5.7h4.8l0.3,2.5h0.1c0.7-1.2,2.5-2.9,5.5-2.9c3.6,0,6.3,2.4,6.3,7.6v10.5h-5.5
			v-9.8c0-2.3-0.8-3.8-2.8-3.8c-1.5,0-2.4,1.1-2.8,2.1c-0.1,0.4-0.2,0.9-0.2,1.4v10.2H8.9V13.3z"/>
	</g>
</g>
</svg>