<!-- Generator: Adobe Illustrator 22.0.1, SVG Export Plug-In  -->
<svg version="1.1"
	 xmlns="http://www.w3.org/2000/svg" xmlns:xlink="http://www.w3.org/1999/xlink" xmlns:a="http://ns.adobe.com/AdobeSVGViewerExtensions/3.0/"
	 x="0px" y="0px" width="25.4px" height="20.6px" viewBox="0 0 25.4 20.6" style="enable-background:new 0 0 25.4 20.6;"
	 xml:space="preserve">
<style type="text/css">
	.st0{fill:#808083;}
</style>
<defs>
</defs>
<path class="st0" d="M22.8,5.1c0,0.2,0,0.4,0,0.7c0,6.9-5.2,14.8-14.8,14.8c-2.9,0-5.7-0.9-8-2.3c0.4,0,0.8,0.1,1.2,0.1
	c2.4,0,4.7-0.8,6.5-2.2c-2.3,0-4.2-1.5-4.9-3.6c0.3,0.1,0.6,0.1,1,0.1c0.5,0,0.9-0.1,1.4-0.2C2.8,11.9,1,9.8,1,7.3c0,0,0,0,0-0.1
	c0.7,0.4,1.5,0.6,2.4,0.7C2,7,1.1,5.4,1.1,3.6c0-1,0.3-1.8,0.7-2.6c2.6,3.1,6.4,5.2,10.7,5.4c-0.1-0.4-0.1-0.8-0.1-1.2
	c0-2.9,2.3-5.2,5.2-5.2c1.5,0,2.9,0.6,3.8,1.6c1.2-0.2,2.3-0.7,3.3-1.3c-0.4,1.2-1.2,2.2-2.3,2.9c1.1-0.1,2.1-0.4,3-0.8
	C24.7,3.5,23.8,4.4,22.8,5.1z"/>
</svg>