<!-- Generator: Adobe Illustrator 19.1.0, SVG Export Plug-In  -->
<svg version="1.1"
	 xmlns="http://www.w3.org/2000/svg" xmlns:xlink="http://www.w3.org/1999/xlink" xmlns:a="http://ns.adobe.com/AdobeSVGViewerExtensions/3.0/"
	 x="0px" y="0px" width="36px" height="36px" viewBox="0 0 36 36" enable-background="new 0 0 36 36" xml:space="preserve">
<defs>
</defs>
<g>
	<circle fill="#197FC3" cx="18" cy="18" r="18"/>
	<g>
		<g>
			<path fill="#FFFFFF" d="M21.3,12.2c-0.8,0-1.5,0.3-1.5,1.1v9.4c0,0.8,0.7,1.1,1.5,1.1c0.8,0,1.5-0.3,1.5-1.1v-9.4
				C22.8,12.5,22.2,12.2,21.3,12.2z"/>
			<path fill="#FFFFFF" d="M15.6,12.2c-0.8,0-1.5,0.3-1.5,1.1v9.4c0,0.8,0.7,1.1,1.5,1.1c0.8,0,1.5-0.3,1.5-1.1v-9.4
				C17,12.5,16.4,12.2,15.6,12.2z"/>
		</g>
	</g>
</g>
</svg>
