<!-- Generator: Adobe Illustrator 19.1.0, SVG Export Plug-In  -->
<svg version="1.1"
	 xmlns="http://www.w3.org/2000/svg" xmlns:xlink="http://www.w3.org/1999/xlink" xmlns:a="http://ns.adobe.com/AdobeSVGViewerExtensions/3.0/"
	 x="0px" y="0px" width="36px" height="36px" viewBox="0 0 36 36" enable-background="new 0 0 36 36" xml:space="preserve">
<defs>
</defs>
<g>
	<circle fill="#E6E7E8" cx="18" cy="18" r="18"/>
	<g>
		<path fill="#FFFFFF" d="M20.7,7c1.5,0,2.2,1,2.2,2.2c0,1.4-1.3,2.8-3,2.8c-1.4,0-2.2-0.8-2.2-2.2C17.8,8.5,18.7,7,20.7,7z
			 M16.1,29c-1.2,0-2-0.7-1.2-3.9l1.3-5.6c0.2-0.9,0.3-1.3,0-1.3c-0.4,0-1.9,0.6-2.8,1.2l-0.6-1c2.8-2.4,6.1-3.8,7.5-3.8
			c1.2,0,1.4,1.4,0.8,3.6l-1.5,5.9c-0.3,1-0.2,1.4,0.1,1.4c0.4,0,1.5-0.4,2.6-1.3l0.7,0.9C20.3,28,17.3,29,16.1,29z"/>
	</g>
</g>
</svg>
