<!-- Generator: Adobe Illustrator 22.0.1, SVG Export Plug-In  -->
<svg version="1.1"
	 xmlns="http://www.w3.org/2000/svg" xmlns:xlink="http://www.w3.org/1999/xlink" xmlns:a="http://ns.adobe.com/AdobeSVGViewerExtensions/3.0/"
	 x="0px" y="0px" width="171.7px" height="64.2px" viewBox="0 0 171.7 64.2" style="enable-background:new 0 0 171.7 64.2;"
	 xml:space="preserve">
<style type="text/css">
	.st0{opacity:0.9;}
	.st_1{fill:#2D3142;}
	.st2{fill:#FFFFFF;}
</style>
<defs>
</defs>
<g id="Header_3_copy">
	<g>
		<g class="st0">
			<g>
				<path class="st_1" d="M64.2,64.2H0V0h64.2V64.2z"/>
			</g>
		</g>
		<g>
			<g>
				<g>
					<path class="st2" d="M43.5,47.5h-6.3l-0.1-0.1c-0.1-0.1-0.3-0.2-0.6-0.4c-1.1-0.8-3.1-2.4-5.7-2.4c-2.6,0-4.6,1.6-5.7,2.4
						c-0.2,0.2-0.4,0.3-0.6,0.4l-0.1,0.1H18v-3l0.3,0c0.2,0,5.8-0.4,5.8-6.3c0-2.7-0.6-4.7-1.9-5.9c-1.4-1.3-3-1.2-3-1.2l-4.6,0
						v-2.9h29v1.2h11l0,0.4c0,0.2-0.5,4.2-13,7.5c-2.2,0.7-2.2,3.4-2.2,3.4c0,0-0.1,1.5,0.9,2.6c0.7,0.7,1.7,1.1,3,1.1h0.3V47.5z
						 M37.4,46.9h5.4v-1.7c-1.4-0.1-2.4-0.5-3.2-1.3c-1.2-1.3-1.1-3-1.1-3.1c0,0,0-3.1,2.7-4c9.8-2.6,11.9-5.6,12.4-6.6H42.8v-1.2
						H15.2v1.6h3.9c0.1,0,1.9-0.1,3.5,1.4c1.4,1.3,2.1,3.5,2.1,6.4c0,5.6-4.8,6.7-6.1,6.9v1.7h5.6c0.1-0.1,0.3-0.2,0.5-0.3
						c1.1-0.9,3.3-2.6,6.1-2.6c2.9,0,5,1.7,6.1,2.6C37.1,46.6,37.3,46.8,37.4,46.9z"/>
				</g>
				<g>
					<path class="st2" d="M37,47.3c0-0.1-2.8-5.4-6.2-5.4c-3.4,0-6.2,5.3-6.2,5.4L24.1,47c0.1-0.2,3-5.8,6.8-5.8
						c3.8,0,6.7,5.5,6.8,5.8L37,47.3z"/>
				</g>
			</g>
			<g>
				<path class="st2" d="M42,25.1c-0.3,0-0.5,0-0.7-0.1c-0.2,0-0.3-0.2-0.3-0.4c0-0.1,0-1.4,0-2c-0.1,0-0.3,0-0.5-0.1
					c-0.8-0.1-6.6-0.2-9.1,0.1l-0.2,0.1c-0.1,0-3.5,0.2-5.3,0.2c-1.9-0.1-5.4,0.1-5.7,0.1c-0.1,0-0.3,0-0.5-0.1
					c-0.3-0.2-0.4-0.7-0.4-1.4c0-0.2,0-1.2,0.6-1.5l0.1,0l0.1,0c0,0,4.2,0.2,5.8,0.1c1.7-0.1,5.1,0,5.3,0l0.1,0l0.1,0.1
					c0.9,0,7.3,0.2,9-0.1c0.1,0,0.4-0.1,0.5-0.1l0.5-2.9l0.1-0.1c0.1-0.1,0.4-0.3,0.7-0.3l0.2,0l0.9,3.5l0.1,4.5l-0.1,0.1
					C43.4,24.9,43.2,25,43,25c0,0-0.1,0-0.2,0C42.5,25,42.2,25.1,42,25.1z M41.6,24.4c0.2,0,0.5,0,1.1,0c0.1,0,0.1,0,0.2,0l-0.1-4.2
					L42,17.5l-0.5,2.9l-0.2,0.1c-0.3,0.1-0.8,0.2-0.9,0.2c-1.9,0.3-9,0.1-9.3,0.1l-0.1,0L31,20.7c-0.6,0-3.6-0.1-5.1,0
					c-1.6,0.1-5.1-0.1-5.8-0.1c-0.1,0.1-0.2,0.5-0.2,0.8c0,0.5,0.1,0.8,0.1,0.8c0.7-0.1,4.3-0.2,5.8-0.1c1.7,0,4.7-0.1,5.2-0.2
					l0.2-0.1c2.4-0.3,8.4-0.1,9.2-0.1c0.7,0,1,0.1,1.1,0.4l0.1,0.2l-0.1,0.1C41.6,23.2,41.6,24.1,41.6,24.4z"/>
			</g>
		</g>
		<g>
			<path class="st_1" d="M80.4,14.5h1.3v13.5h-1.3V14.5z"/>
			<path class="st_1" d="M85.3,18.4h1.3v1.4c0,0.4,0,0.8,0,0.8h0c0.3-0.9,1.6-2.4,3.9-2.4c2.4,0,3.2,1.4,3.2,3.8v6.2h-1.3v-5.8
				c0-1.5-0.2-2.9-2.1-2.9c-1.7,0-3.1,1.1-3.5,2.7c-0.1,0.4-0.2,0.8-0.2,1.3v4.6h-1.3V18.4z"/>
			<path class="st_1" d="M97.1,19.6h-1.3v-1.1h1.3v-2.8h1.3v2.8h2.4v1.1h-2.4v4.8c0,2.3,1.4,2.6,2.2,2.6c0.3,0,0.4,0,0.4,0v1.2
				c0,0-0.2,0-0.6,0c-1.1,0-3.4-0.4-3.4-3.6V19.6z"/>
			<path class="st_1" d="M107.3,18.2c2.7,0,4,2.1,4,4.5c0,0.2,0,0.7,0,0.7h-7.4c0.1,2.5,1.8,3.8,3.8,3.8c1.8,0,2.9-1.2,2.9-1.2l0.6,1
				c0,0-1.4,1.3-3.6,1.3c-2.9,0-5.1-2.1-5.1-5.1C102.5,20.1,104.6,18.2,107.3,18.2z M110,22.2c-0.1-2-1.3-3-2.8-3c-1.6,0-3,1-3.3,3
				H110z"/>
			<path class="st_1" d="M113.8,18.4h1.3v1.7c0,0.4,0,0.8,0,0.8h0c0.5-1.5,1.5-2.6,3.1-2.6c0.3,0,0.5,0.1,0.5,0.1v1.3
				c0,0-0.2,0-0.5,0c-1.4,0-2.4,1.1-2.8,2.5c-0.2,0.6-0.3,1.3-0.3,1.9v4.1h-1.3V18.4z"/>
			<path class="st_1" d="M125.8,22.1h0.5v-0.3c0-1.9-1-2.5-2.4-2.5c-1.6,0-2.7,0.9-2.7,0.9l-0.6-1c0,0,1.3-1.1,3.4-1.1
				c2.3,0,3.6,1.3,3.6,3.7v6.2h-1.3V27c0-0.5,0-0.8,0-0.8h0c0,0-0.8,2.1-3.2,2.1c-1.6,0-3.3-0.9-3.3-2.9
				C119.9,22.2,124.1,22.1,125.8,22.1z M123.4,27.2c1.8,0,3-1.9,3-3.6v-0.4h-0.6c-1.5,0-4.6,0.1-4.6,2.2
				C121.2,26.3,121.9,27.2,123.4,27.2z"/>
			<path class="st_1" d="M135.1,18.2c2.4,0,3.5,1.4,3.5,1.4l-0.7,1c0,0-1.1-1.2-2.8-1.2c-2.1,0-3.8,1.6-3.8,3.9
				c0,2.3,1.7,3.9,3.8,3.9c2,0,3.1-1.4,3.1-1.4l0.6,1c0,0-1.3,1.5-3.8,1.5c-2.9,0-5.1-2.1-5.1-5.1C130,20.3,132.2,18.2,135.1,18.2z"
				/>
			<path class="st_1" d="M141.6,19.6h-1.3v-1.1h1.3v-2.8h1.3v2.8h2.4v1.1h-2.4v4.8c0,2.3,1.4,2.6,2.2,2.6c0.3,0,0.4,0,0.4,0v1.2
				c0,0-0.2,0-0.6,0c-1.1,0-3.4-0.4-3.4-3.6V19.6z"/>
			<path class="st_1" d="M147.6,14.5h1.4v1.6h-1.4V14.5z M147.7,18.4h1.3v9.7h-1.3V18.4z"/>
			<path class="st_1" d="M150.8,18.4h1.4l2.7,7.1c0.2,0.5,0.3,1.2,0.3,1.2h0c0,0,0.2-0.7,0.3-1.2l2.7-7.1h1.4l-3.7,9.7h-1.4
				L150.8,18.4z"/>
			<path class="st_1" d="M165.6,18.2c2.7,0,4,2.1,4,4.5c0,0.2,0,0.7,0,0.7h-7.4c0.1,2.5,1.8,3.8,3.8,3.8c1.8,0,2.9-1.2,2.9-1.2l0.6,1
				c0,0-1.4,1.3-3.6,1.3c-2.9,0-5.1-2.1-5.1-5.1C160.8,20.1,163,18.2,165.6,18.2z M168.3,22.2c-0.1-2-1.3-3-2.8-3c-1.6,0-3,1-3.3,3
				H168.3z"/>
			<path class="st_1" d="M81.1,36.4h1.4l3.5,8c0.3,0.7,0.7,1.7,0.7,1.7h0c0,0,0.4-1,0.7-1.7l3.5-8h1.4l1.1,13.5H92l-0.8-9.5
				c-0.1-0.7,0-1.9,0-1.9h0c0,0-0.4,1.2-0.7,1.9l-3.2,6.9h-1.3l-3.2-6.9c-0.3-0.7-0.7-1.9-0.7-1.9h0c0,0,0,1.2,0,1.9l-0.8,9.5H80
				L81.1,36.4z"/>
			<path class="st_1" d="M100.6,40c2.7,0,4,2.1,4,4.5c0,0.2,0,0.7,0,0.7h-7.4c0.1,2.5,1.8,3.8,3.8,3.8c1.8,0,2.9-1.2,2.9-1.2l0.6,1
				c0,0-1.4,1.3-3.6,1.3c-2.9,0-5.1-2.1-5.1-5.1C95.8,41.9,98,40,100.6,40z M103.3,44c-0.1-2-1.3-3-2.8-3c-1.6,0-3,1-3.3,3H103.3z"
				/>
			<path class="st_1" d="M111.5,40c2.4,0,3.5,1.4,3.5,1.4l-0.7,1c0,0-1.1-1.2-2.8-1.2c-2.1,0-3.8,1.6-3.8,3.9c0,2.3,1.7,3.9,3.8,3.9
				c2,0,3.1-1.4,3.1-1.4l0.6,1c0,0-1.3,1.5-3.8,1.5c-2.9,0-5.1-2.1-5.1-5.1C106.5,42.1,108.7,40,111.5,40z"/>
			<path class="st_1" d="M117.7,36.4h1.3v5.2c0,0.4,0,0.8,0,0.8h0c0.4-0.9,1.7-2.4,3.9-2.4c2.4,0,3.2,1.4,3.2,3.8v6.2h-1.3v-5.8
				c0-1.5-0.2-2.9-2.1-2.9c-1.7,0-3.1,1.1-3.5,2.8c-0.1,0.4-0.2,0.8-0.2,1.3v4.6h-1.3V36.4z"/>
			<path class="st_1" d="M134.2,43.9h0.5v-0.3c0-1.9-1-2.5-2.4-2.5c-1.6,0-2.7,0.9-2.7,0.9l-0.6-1c0,0,1.3-1.1,3.4-1.1
				c2.3,0,3.6,1.3,3.6,3.7v6.2h-1.3v-1.1c0-0.5,0-0.8,0-0.8h0c0,0-0.8,2.1-3.2,2.1c-1.6,0-3.3-0.9-3.3-2.9
				C128.3,44,132.6,43.9,134.2,43.9z M131.8,49c1.8,0,3-1.9,3-3.6V45h-0.6c-1.5,0-4.6,0.1-4.6,2.2C129.7,48.1,130.4,49,131.8,49z"/>
			<path class="st_1" d="M139.1,40.2h1.3v1.4c0,0.4,0,0.8,0,0.8h0c0.3-0.9,1.6-2.4,3.9-2.4c2.4,0,3.2,1.4,3.2,3.8v6.2h-1.3v-5.8
				c0-1.5-0.2-2.9-2.1-2.9c-1.7,0-3.1,1.1-3.5,2.7c-0.1,0.4-0.2,0.8-0.2,1.3v4.6h-1.3V40.2z"/>
			<path class="st_1" d="M150.5,36.4h1.4V38h-1.4V36.4z M150.5,40.2h1.3v9.7h-1.3V40.2z"/>
			<path class="st_1" d="M159.4,40c2.4,0,3.5,1.4,3.5,1.4l-0.7,1c0,0-1.1-1.2-2.8-1.2c-2.1,0-3.8,1.6-3.8,3.9c0,2.3,1.7,3.9,3.8,3.9
				c2,0,3.1-1.4,3.1-1.4l0.6,1c0,0-1.3,1.5-3.8,1.5c-2.9,0-5.1-2.1-5.1-5.1C154.3,42.1,156.6,40,159.4,40z"/>
			<path class="st_1" d="M165.5,47.8c0,0,1.1,1.2,2.9,1.2c1,0,1.9-0.5,1.9-1.5c0-2.1-5.2-1.6-5.2-4.8c0-1.7,1.6-2.7,3.3-2.7
				c2,0,3,1.1,3,1.1l-0.6,1c0,0-0.8-0.9-2.4-0.9c-1,0-1.9,0.4-1.9,1.5c0,2.1,5.2,1.6,5.2,4.8c0,1.6-1.4,2.7-3.3,2.7
				c-2.3,0-3.6-1.4-3.6-1.4L165.5,47.8z"/>
		</g>
	</g>
</g>
</svg>