<!-- Generator: Adobe Illustrator 22.0.1, SVG Export Plug-In  -->
<svg version="1.1"
	 xmlns="http://www.w3.org/2000/svg" xmlns:xlink="http://www.w3.org/1999/xlink" xmlns:a="http://ns.adobe.com/AdobeSVGViewerExtensions/3.0/"
	 x="0px" y="0px" width="75px" height="75px" viewBox="0 0 75 75" style="enable-background:new 0 0 75 75;" xml:space="preserve">
<style type="text/css">
	.st0{fill:#2D3142;}
	.st1{fill:#FFFFFF;}
</style>
<defs>
</defs>
<g id="Footer_3_copy">
	<g>
		<g>
			<g>
				<path class="st0" d="M75,75H0V0h75V75z"/>
			</g>
		</g>
		<g>
			<g>
				<g>
					<path class="st1" d="M50.8,55.5h-7.4l-0.1-0.1c-0.2-0.1-0.4-0.3-0.7-0.5c-1.3-1-3.6-2.8-6.7-2.8c-3.1,0-5.4,1.8-6.7,2.8
						c-0.3,0.2-0.5,0.4-0.7,0.5l-0.1,0.1H21v-3.5l0.4,0c0.3,0,6.7-0.5,6.7-7.3c0-3.2-0.8-5.5-2.3-6.9c-1.6-1.5-3.5-1.4-3.5-1.4
						l-5.4,0V33h33.9v1.4h12.9l0,0.4c0,0.2-0.6,4.9-15.2,8.8c-2.6,0.8-2.6,3.9-2.6,4c0,0-0.1,1.8,1,3c0.8,0.8,2,1.3,3.5,1.3h0.4
						V55.5z M43.7,54.8h6.4v-2c-1.6-0.1-2.8-0.6-3.7-1.5c-1.4-1.5-1.3-3.5-1.2-3.6c0,0,0-3.7,3.2-4.7c11.4-3,14-6.5,14.5-7.7H50.1
						v-1.4H17.8v1.9h4.6c0.1,0,2.2-0.1,4.1,1.6c1.7,1.5,2.5,4,2.5,7.4c0,6.6-5.6,7.8-7.1,8.1v2h6.5c0.1-0.1,0.3-0.2,0.5-0.4
						c1.3-1,3.8-3,7.2-3c3.3,0,5.8,1.9,7.2,3C43.4,54.5,43.6,54.7,43.7,54.8z"/>
				</g>
				<g>
					<path class="st1" d="M43.3,55.3c0-0.1-3.3-6.3-7.2-6.3c-3.9,0-7.2,6.2-7.2,6.3L28.1,55c0.1-0.3,3.5-6.7,7.9-6.7
						c4.4,0,7.8,6.5,7.9,6.7L43.3,55.3z"/>
				</g>
			</g>
			<g>
				<path class="st1" d="M49.1,29.3c-0.4,0-0.6,0-0.8-0.1c-0.2-0.1-0.4-0.2-0.4-0.5c0-0.1,0-1.7,0-2.3c-0.1,0-0.3-0.1-0.6-0.1
					c-1-0.1-7.8-0.3-10.6,0.1l-0.3,0.1c-0.2,0-4.1,0.3-6.2,0.2c-2.2-0.1-6.3,0.1-6.7,0.2c-0.1,0-0.3,0-0.5-0.1
					c-0.3-0.3-0.5-0.8-0.5-1.6c0-0.2,0-1.4,0.6-1.7l0.1-0.1l0.1,0c0,0,4.9,0.2,6.8,0.1c2-0.1,6,0,6.2,0l0.1,0l0.2,0.1
					c1.1,0,8.5,0.2,10.6-0.2c0.2,0,0.4-0.1,0.6-0.1l0.6-3.4l0.1-0.1c0.1-0.1,0.4-0.4,0.9-0.3l0.3,0l1.1,4.1l0.2,5.3l-0.1,0.1
					c-0.1,0.1-0.3,0.3-0.6,0.3c0,0-0.1,0-0.2,0C49.6,29.3,49.4,29.3,49.1,29.3z M48.7,28.5c0.2,0,0.6,0,1.3,0c0.1,0,0.2,0,0.2,0
					L50,23.6l-0.8-3.2l-0.6,3.4L48.4,24c-0.3,0.1-0.9,0.2-1,0.2c-2.3,0.4-10.5,0.2-10.8,0.2l-0.1,0l-0.2-0.1c-0.7,0-4.2-0.1-6,0
					c-1.8,0.1-5.9-0.1-6.8-0.1c-0.1,0.2-0.2,0.6-0.2,1c0,0.6,0.1,0.9,0.1,1c0.8-0.1,5-0.2,6.8-0.2c2,0.1,5.5-0.2,6.1-0.2l0.3-0.1
					c2.8-0.4,9.8-0.2,10.8-0.1c0.8,0.1,1.2,0.2,1.3,0.5l0.1,0.2l-0.1,0.1C48.6,27.1,48.7,28.1,48.7,28.5z"/>
			</g>
		</g>
	</g>
</g>
</svg>